<svg width="300" height="31" xmlns="http://www.w3.org/2000/svg" class="fontAboveSlogan">
   <g stroke="null" id="85db0dd4-7a96-426f-b259-3c5dd9de1934" fill="#000000" transform="matrix(3.0843847760809724,0,0,3.0843847760809724,82.75784671553839,190.74856437178732) ">
    <path stroke="null" d="m-20.52123,-61.73331l0,0q0.14,0 0.14,0.14l0,0l0,0.21l0,0q0,0.14 -0.14,0.14l0,0l-2.81,0l0,0q-0.06,0 -0.06,0.06l0,0l0,9.11l0,0q0,0.14 -0.14,0.14l0,0l-0.26,0l0,0q-0.14,0 -0.14,-0.14l0,0l0,-9.11l0,0q0,-0.06 -0.06,-0.06l0,0l-2.7,0l0,0q-0.14,0 -0.14,-0.14l0,0l0,-0.21l0,0q0,-0.14 0.14,-0.14l0,0l6.17,0zm8.12,0.14l0,0q0,-0.14 0.14,-0.14l0,0l0.27,0l0,0q0.14,0 0.14,0.14l0,0l0,9.52l0,0q0,0.14 -0.14,0.14l0,0l-0.27,0l0,0q-0.14,0 -0.14,-0.14l0,0l0,-4.47l0,0q0,-0.05 -0.05,-0.05l0,0l-5.08,0l0,0q-0.06,0 -0.06,0.05l0,0l0,4.47l0,0q0,0.14 -0.14,0.14l0,0l-0.27,0l0,0q-0.14,0 -0.14,-0.14l0,0l0,-9.52l0,0q0,-0.14 0.14,-0.14l0,0l0.27,0l0,0q0.14,0 0.14,0.14l0,0l0,4.44l0,0q0,0.05 0.06,0.05l0,0l5.08,0l0,0q0.05,0 0.05,-0.05l0,0l0,-4.44zm9.47,9.66l0,0q-0.13,0 -0.17,-0.1l0,0l-2.21,-4.56l0,0q-0.02,-0.04 -0.06,-0.04l0,0l-2.84,0l0,0q-0.06,0 -0.06,0.05l0,0l0,4.51l0,0q0,0.14 -0.14,0.14l0,0l-0.26,0l0,0q-0.14,0 -0.14,-0.14l0,0l0,-9.55l0,0q0,-0.14 0.14,-0.14l0,0l3.43,0l0,0q1.15,0 1.85,0.72l0,0l0,0q0.71,0.71 0.71,1.87l0,0l0,0q0,1 -0.55,1.67l0,0l0,0q-0.56,0.67 -1.49,0.82l0,0l0,0q-0.07,0.03 -0.05,0.07l0,0l2.19,4.51l0,0q0.01,0.03 0.01,0.07l0,0l0,0q0,0.1 -0.11,0.1l0,0l-0.25,0zm-5.28,-9.32l0,0q-0.06,0 -0.06,0.05l0,0l0,4.03l0,0q0,0.06 0.06,0.06l0,0l2.95,0l0,0q0.91,0 1.47,-0.57l0,0l0,0q0.56,-0.58 0.56,-1.49l0,0l0,0q0,-0.94 -0.56,-1.51l0,0l0,0q-0.56,-0.57 -1.47,-0.57l0,0l-2.95,0zm14.1,-0.13l0,0q0,0.14 -0.14,0.14l0,0l-5.41,0l0,0q-0.05,0 -0.05,0.06l0,0l0,4.03l0,0q0,0.05 0.05,0.05l0,0l3.87,0l0,0q0.14,0 0.14,0.14l0,0l0,0.23l0,0q0,0.14 -0.14,0.14l0,0l-3.87,0l0,0q-0.05,0 -0.05,0.05l0,0l0,4.06l0,0q0,0.06 0.05,0.06l0,0l5.41,0l0,0q0.14,0 0.14,0.14l0,0l0,0.21l0,0q0,0.14 -0.14,0.14l0,0l-5.87,0l0,0q-0.14,0 -0.14,-0.14l0,0l0,-9.52l0,0q0,-0.14 0.14,-0.14l0,0l5.87,0l0,0q0.14,0 0.14,0.14l0,0l0,0.21zm8.61,0l0,0q0,0.14 -0.14,0.14l0,0l-5.41,0l0,0q-0.05,0 -0.05,0.06l0,0l0,4.03l0,0q0,0.05 0.05,0.05l0,0l3.87,0l0,0q0.14,0 0.14,0.14l0,0l0,0.23l0,0q0,0.14 -0.14,0.14l0,0l-3.87,0l0,0q-0.05,0 -0.05,0.05l0,0l0,4.06l0,0q0,0.06 0.05,0.06l0,0l5.41,0l0,0q0.14,0 0.14,0.14l0,0l0,0.21l0,0q0,0.14 -0.14,0.14l0,0l-5.87,0l0,0q-0.14,0 -0.14,-0.14l0,0l0,-9.52l0,0q0,-0.14 0.14,-0.14l0,0l5.87,0l0,0q0.14,0 0.14,0.14l0,0l0,0.21zm7.89,9.56l0,0q-1.49,0 -2.37,-0.67l0,0l0,0q-0.87,-0.67 -0.87,-1.81l0,0l0,-0.49l0,0q0,-0.14 0.14,-0.14l0,0l0.23,0l0,0q0.14,0 0.14,0.14l0,0l0,0.45l0,0q0,0.91 0.75,1.47l0,0l0,0q0.75,0.56 2.03,0.56l0,0l0,0q1.23,0 1.89,-0.52l0,0l0,0q0.65,-0.51 0.65,-1.41l0,0l0,0q0,-0.56 -0.28,-0.97l0,0l0,0q-0.28,-0.4 -0.86,-0.76l0,0l0,0q-0.59,-0.36 -1.67,-0.82l0,0l0,0q-1.09,-0.46 -1.65,-0.77l0,0l0,0q-0.55,-0.31 -0.87,-0.77l0,0l0,0q-0.32,-0.46 -0.32,-1.17l0,0l0,0q0,-1.14 0.76,-1.74l0,0l0,0q0.76,-0.6 2.15,-0.6l0,0l0,0q1.51,0 2.35,0.68l0,0l0,0q0.84,0.68 0.84,1.82l0,0l0,0.34l0,0q0,0.14 -0.14,0.14l0,0l-0.26,0l0,0q-0.14,0 -0.14,-0.14l0,0l0,-0.29l0,0q0,-0.94 -0.7,-1.5l0,0l0,0q-0.7,-0.56 -1.98,-0.56l0,0l0,0q-1.13,0 -1.74,0.47l0,0l0,0q-0.61,0.47 -0.61,1.35l0,0l0,0q0,0.59 0.27,0.95l0,0l0,0q0.28,0.36 0.79,0.64l0,0l0,0q0.51,0.27 1.57,0.7l0,0l0,0q1.05,0.44 1.7,0.84l0,0l0,0q0.64,0.4 0.99,0.91l0,0l0,0q0.35,0.51 0.35,1.21l0,0l0,0q0,1.12 -0.82,1.79l0,0l0,0q-0.82,0.67 -2.32,0.67l0,0zm5.67,-0.11l0,0q-0.14,0 -0.14,-0.14l0,0l0,-9.52l0,0q0,-0.14 0.14,-0.14l0,0l0.27,0l0,0q0.14,0 0.14,0.14l0,0l0,9.52l0,0q0,0.14 -0.14,0.14l0,0l-0.27,0zm6.09,0.11l0,0q-1.49,0 -2.37,-0.67l0,0l0,0q-0.87,-0.67 -0.87,-1.81l0,0l0,-0.49l0,0q0,-0.14 0.14,-0.14l0,0l0.23,0l0,0q0.14,0 0.14,0.14l0,0l0,0.45l0,0q0,0.91 0.75,1.47l0,0l0,0q0.75,0.56 2.03,0.56l0,0l0,0q1.23,0 1.89,-0.52l0,0l0,0q0.65,-0.51 0.65,-1.41l0,0l0,0q0,-0.56 -0.28,-0.97l0,0l0,0q-0.28,-0.4 -0.86,-0.76l0,0l0,0q-0.59,-0.36 -1.67,-0.82l0,0l0,0q-1.09,-0.46 -1.65,-0.77l0,0l0,0q-0.55,-0.31 -0.87,-0.77l0,0l0,0q-0.32,-0.46 -0.32,-1.17l0,0l0,0q0,-1.14 0.76,-1.74l0,0l0,0q0.76,-0.6 2.15,-0.6l0,0l0,0q1.51,0 2.35,0.68l0,0l0,0q0.84,0.68 0.84,1.82l0,0l0,0.34l0,0q0,0.14 -0.14,0.14l0,0l-0.26,0l0,0q-0.14,0 -0.14,-0.14l0,0l0,-0.29l0,0q0,-0.94 -0.7,-1.5l0,0l0,0q-0.7,-0.56 -1.98,-0.56l0,0l0,0q-1.13,0 -1.74,0.47l0,0l0,0q-0.61,0.47 -0.61,1.35l0,0l0,0q0,0.59 0.27,0.95l0,0l0,0q0.28,0.36 0.79,0.64l0,0l0,0q0.51,0.27 1.57,0.7l0,0l0,0q1.05,0.44 1.7,0.84l0,0l0,0q0.64,0.4 0.99,0.91l0,0l0,0q0.35,0.51 0.35,1.21l0,0l0,0q0,1.12 -0.82,1.79l0,0l0,0q-0.82,0.67 -2.32,0.67l0,0zm11.02,-9.91l0,0q0.14,0 0.14,0.14l0,0l0,0.21l0,0q0,0.14 -0.14,0.14l0,0l-2.81,0l0,0q-0.06,0 -0.06,0.06l0,0l0,9.11l0,0q0,0.14 -0.14,0.14l0,0l-0.26,0l0,0q-0.14,0 -0.14,-0.14l0,0l0,-9.11l0,0q0,-0.06 -0.06,-0.06l0,0l-2.7,0l0,0q-0.14,0 -0.14,-0.14l0,0l0,-0.21l0,0q0,-0.14 0.14,-0.14l0,0l6.17,0zm8.53,0.35l0,0q0,0.14 -0.14,0.14l0,0l-5.41,0l0,0q-0.05,0 -0.05,0.06l0,0l0,4.03l0,0q0,0.05 0.05,0.05l0,0l3.87,0l0,0q0.14,0 0.14,0.14l0,0l0,0.23l0,0q0,0.14 -0.14,0.14l0,0l-3.87,0l0,0q-0.05,0 -0.05,0.05l0,0l0,4.06l0,0q0,0.06 0.05,0.06l0,0l5.41,0l0,0q0.14,0 0.14,0.14l0,0l0,0.21l0,0q0,0.14 -0.14,0.14l0,0l-5.87,0l0,0q-0.14,0 -0.14,-0.14l0,0l0,-9.52l0,0q0,-0.14 0.14,-0.14l0,0l5.87,0l0,0q0.14,0 0.14,0.14l0,0l0,0.21zm8.34,9.45l0,0q-0.12,0 -0.17,-0.1l0,0l-2.21,-4.56l0,0q-0.01,-0.04 -0.05,-0.04l0,0l-2.85,0l0,0q-0.05,0 -0.05,0.05l0,0l0,4.51l0,0q0,0.14 -0.14,0.14l0,0l-0.27,0l0,0q-0.14,0 -0.14,-0.14l0,0l0,-9.55l0,0q0,-0.14 0.14,-0.14l0,0l3.43,0l0,0q1.15,0 1.86,0.72l0,0l0,0q0.7,0.71 0.7,1.87l0,0l0,0q0,1 -0.55,1.67l0,0l0,0q-0.55,0.67 -1.49,0.82l0,0l0,0q-0.07,0.03 -0.04,0.07l0,0l2.18,4.51l0,0q0.02,0.03 0.02,0.07l0,0l0,0q0,0.1 -0.12,0.1l0,0l-0.25,0zm-5.28,-9.32l0,0q-0.05,0 -0.05,0.05l0,0l0,4.03l0,0q0,0.06 0.05,0.06l0,0l2.96,0l0,0q0.91,0 1.47,-0.57l0,0l0,0q0.56,-0.58 0.56,-1.49l0,0l0,0q0,-0.94 -0.56,-1.51l0,0l0,0q-0.56,-0.57 -1.47,-0.57l0,0l-2.96,0zm10.59,9.43l0,0q-1.5,0 -2.38,-0.67l0,0l0,0q-0.87,-0.67 -0.87,-1.81l0,0l0,-0.49l0,0q0,-0.14 0.14,-0.14l0,0l0.24,0l0,0q0.14,0 0.14,0.14l0,0l0,0.45l0,0q0,0.91 0.75,1.47l0,0l0,0q0.75,0.56 2.02,0.56l0,0l0,0q1.23,0 1.89,-0.52l0,0l0,0q0.66,-0.51 0.66,-1.41l0,0l0,0q0,-0.56 -0.28,-0.97l0,0l0,0q-0.28,-0.4 -0.87,-0.76l0,0l0,0q-0.59,-0.36 -1.67,-0.82l0,0l0,0q-1.09,-0.46 -1.64,-0.77l0,0l0,0q-0.55,-0.31 -0.88,-0.77l0,0l0,0q-0.32,-0.46 -0.32,-1.17l0,0l0,0q0,-1.14 0.77,-1.74l0,0l0,0q0.76,-0.6 2.14,-0.6l0,0l0,0q1.52,0 2.36,0.68l0,0l0,0q0.84,0.68 0.84,1.82l0,0l0,0.34l0,0q0,0.14 -0.14,0.14l0,0l-0.27,0l0,0q-0.14,0 -0.14,-0.14l0,0l0,-0.29l0,0q0,-0.94 -0.7,-1.5l0,0l0,0q-0.7,-0.56 -1.97,-0.56l0,0l0,0q-1.14,0 -1.75,0.47l0,0l0,0q-0.61,0.47 -0.61,1.35l0,0l0,0q0,0.59 0.28,0.95l0,0l0,0q0.27,0.36 0.78,0.64l0,0l0,0q0.51,0.27 1.58,0.7l0,0l0,0q1.05,0.44 1.69,0.84l0,0l0,0q0.64,0.4 0.99,0.91l0,0l0,0q0.35,0.51 0.35,1.21l0,0l0,0q0,1.12 -0.82,1.79l0,0l0,0q-0.81,0.67 -2.31,0.67l0,0z" id="svg_2"/>
   </g>
</svg>