<svg width="300" height="40" xmlns="http://www.w3.org/2000/svg" class="iconLeft">
  <linearGradient gradientTransform="rotate(25)" id="01a3996e-1379-4a71-a747-73c814e51cf9" x1="0%" y1="0%" x2="100%" y2="0%">
   <stop offset="0%" stop-color="#913C00"/>
   <stop offset="100%" stop-color="#D9AD76"/>
  </linearGradient>
   <g stroke="null" id="401f740f-b58c-4675-b469-e1c88c311f74" fill="#000000" transform="matrix(2.501862028829334,0,0,2.501862028829334,114.71541312586713,183.4413468784685) ">
    <path stroke="null" d="m-21.72185,-67.94591l0,-0.95l6.85,0l0,0.95l-2.87,0l0,7.86l-1.11,0l0,-7.86l-2.87,0zm8.35,-0.95l1.1,0l0,3.88l4.33,0l0,-3.88l1.11,0l0,8.81l-1.11,0l0,-3.98l-4.33,0l0,3.98l-1.1,0l0,-8.81zm15.5,2.52l0,0l0,0q0,1.09 -0.59,1.77l0,0l0,0q-0.58,0.67 -1.71,0.86l0,0l2.52,3.66l-1.43,0l-2.28,-3.6l-1.54,0l0,3.6l-1.11,0l0,-8.81l3.07,0l0,0q1.48,0 2.27,0.72l0,0l0,0q0.8,0.71 0.8,1.8zm-5.03,1.92l1.88,0l0,0q0.99,0 1.5,-0.48l0,0l0,0q0.51,-0.49 0.51,-1.28l0,0l0,0q0,-0.79 -0.5,-1.26l0,0l0,0q-0.49,-0.47 -1.43,-0.47l0,0l-1.96,0l0,3.49zm7.46,4.37l0,-8.81l5.42,0l0,0.95l-4.31,0l0,2.96l4.06,0l0,0.94l-4.06,0l0,2.99l4.31,0l0,0.97l-5.42,0zm7.87,0l0,-8.81l5.42,0l0,0.95l-4.31,0l0,2.96l4.06,0l0,0.94l-4.06,0l0,2.99l4.31,0l0,0.97l-5.42,0zm16.98,-6.67l-1.08,0l0,0q-0.23,-1.28 -1.89,-1.28l0,0l0,0q-0.88,0 -1.35,0.38l0,0l0,0q-0.48,0.39 -0.48,0.93l0,0l0,0q0,0.53 0.29,0.81l0,0l0,0q0.3,0.28 0.96,0.49l0,0l1.83,0.63l0,0q0.94,0.33 1.49,0.89l0,0l0,0q0.55,0.56 0.55,1.57l0,0l0,0q0,1.02 -0.86,1.71l0,0l0,0q-0.87,0.69 -2.33,0.69l0,0l0,0q-1.45,0 -2.39,-0.73l0,0l0,0q-0.93,-0.74 -0.95,-2.07l0,0l1.07,0l0,0q0,0.87 0.61,1.33l0,0l0,0q0.61,0.46 1.57,0.46l0,0l0,0q0.96,0 1.52,-0.42l0,0l0,0q0.56,-0.43 0.56,-1.01l0,0l0,0q0,-0.58 -0.34,-0.92l0,0l0,0q-0.35,-0.33 -1.02,-0.56l0,0l-1.55,-0.57l0,0q-1.09,-0.37 -1.65,-0.87l0,0l0,0q-0.56,-0.5 -0.56,-1.48l0,0l0,0q0,-0.97 0.78,-1.62l0,0l0,0q0.78,-0.65 2.2,-0.65l0,0l0,0q1.41,0 2.16,0.62l0,0l0,0q0.75,0.62 0.86,1.67l0,0zm2.7,6.67l0,-8.81l1.11,0l0,8.81l-1.11,0zm9.69,-6.67l-1.08,0l0,0q-0.23,-1.28 -1.89,-1.28l0,0l0,0q-0.88,0 -1.35,0.38l0,0l0,0q-0.48,0.39 -0.48,0.93l0,0l0,0q0,0.53 0.29,0.81l0,0l0,0q0.3,0.28 0.96,0.49l0,0l1.83,0.63l0,0q0.94,0.33 1.49,0.89l0,0l0,0q0.55,0.56 0.55,1.57l0,0l0,0q0,1.02 -0.86,1.71l0,0l0,0q-0.87,0.69 -2.33,0.69l0,0l0,0q-1.45,0 -2.39,-0.73l0,0l0,0q-0.93,-0.74 -0.95,-2.07l0,0l1.07,0l0,0q0,0.87 0.61,1.33l0,0l0,0q0.61,0.46 1.57,0.46l0,0l0,0q0.96,0 1.52,-0.42l0,0l0,0q0.56,-0.43 0.56,-1.01l0,0l0,0q0,-0.58 -0.34,-0.92l0,0l0,0q-0.35,-0.33 -1.02,-0.56l0,0l-1.55,-0.57l0,0q-1.09,-0.37 -1.65,-0.87l0,0l0,0q-0.56,-0.5 -0.56,-1.48l0,0l0,0q0,-0.97 0.78,-1.62l0,0l0,0q0.78,-0.65 2.2,-0.65l0,0l0,0q1.41,0 2.16,0.62l0,0l0,0q0.75,0.62 0.86,1.67l0,0zm1.37,-1.19l0,-0.95l6.85,0l0,0.95l-2.87,0l0,7.86l-1.11,0l0,-7.86l-2.87,0zm8.33,7.86l0,-8.81l5.42,0l0,0.95l-4.31,0l0,2.96l4.06,0l0,0.94l-4.06,0l0,2.99l4.31,0l0,0.97l-5.42,0zm14.02,-6.29l0,0l0,0q0,1.09 -0.58,1.77l0,0l0,0q-0.58,0.67 -1.72,0.86l0,0l2.52,3.66l-1.43,0l-2.28,-3.6l-1.54,0l0,3.6l-1.1,0l0,-8.81l3.06,0l0,0q1.49,0 2.28,0.72l0,0l0,0q0.79,0.71 0.79,1.8zm-5.03,1.92l1.88,0l0,0q0.99,0 1.5,-0.48l0,0l0,0q0.51,-0.49 0.51,-1.28l0,0l0,0q0,-0.79 -0.49,-1.26l0,0l0,0q-0.5,-0.47 -1.44,-0.47l0,0l-1.96,0l0,3.49zm13.25,-2.3l-1.08,0l0,0q-0.24,-1.28 -1.89,-1.28l0,0l0,0q-0.88,0 -1.36,0.38l0,0l0,0q-0.48,0.39 -0.48,0.93l0,0l0,0q0,0.53 0.3,0.81l0,0l0,0q0.29,0.28 0.95,0.49l0,0l1.83,0.63l0,0q0.94,0.33 1.49,0.89l0,0l0,0q0.56,0.56 0.56,1.57l0,0l0,0q0,1.02 -0.87,1.71l0,0l0,0q-0.87,0.69 -2.32,0.69l0,0l0,0q-1.46,0 -2.39,-0.73l0,0l0,0q-0.93,-0.74 -0.96,-2.07l0,0l1.08,0l0,0q0,0.87 0.61,1.33l0,0l0,0q0.61,0.46 1.56,0.46l0,0l0,0q0.96,0 1.52,-0.42l0,0l0,0q0.56,-0.43 0.56,-1.01l0,0l0,0q0,-0.58 -0.34,-0.92l0,0l0,0q-0.34,-0.33 -1.01,-0.56l0,0l-1.56,-0.57l0,0q-1.09,-0.37 -1.65,-0.87l0,0l0,0q-0.56,-0.5 -0.56,-1.48l0,0l0,0q0,-0.97 0.78,-1.62l0,0l0,0q0.79,-0.65 2.2,-0.65l0,0l0,0q1.42,0 2.16,0.62l0,0l0,0q0.75,0.62 0.87,1.67l0,0z" id="svg_2"/>
   </g>
   <g stroke="null" id="c5f740ca-a396-4718-a769-b0b142b7911f" fill="url(#01a3996e-1379-4a71-a747-73c814e51cf9)" transform="matrix(0.367612595506977,0,0,0.367612595506977,54.54525848804066,187.45055323410415) ">
    <path stroke="null" d="m-89.37689,-448.97304c-4.237,9.467 -13.704,32.207 -13.356,45.661c-8.98,-1.17 -10.551,-19.502 -10.551,-19.502s-9.346,2.037 -18.991,11.076c-7.093,-20.743 22.37,-35.502 22.37,-35.502l10.117,-2.685l1.02,-3.387l18.781,0l1.021,3.387l10.117,2.685s29.463,14.759 22.37,35.502c-9.645,-9.039 -18.99,-11.076 -18.99,-11.076s-1.572,18.331 -10.553,19.502c0.349,-13.454 -9.118,-36.194 -13.355,-45.661zm-6.682,-26.339s-2.572,6.644 -3.09,10c-0.512,3.31 0,10 0,10l18.545,0s0.511,-6.69 0,-10c-0.52,-3.357 -3.091,-10 -3.091,-10l-12.364,0zm-48.704,-20.225c-5.763,19.95 -3.773,32.418 0,43.225c8.102,-14.516 43.5,-2.97 43.5,-2.97s-1.085,-7.582 -0.569,-10.963c0.499,-3.269 3.455,-9.257 3.455,-9.257s-42.285,-25.53 -46.386,-20.035zm1.386,46.188c8.038,-16.083 41,-2.829 41,-2.829s-32.962,11.04 -41,2.829zm107.386,-46.188c5.763,19.95 3.773,32.418 0,43.225c-8.102,-14.516 -43.5,-2.97 -43.5,-2.97s1.085,-7.582 0.569,-10.963c-0.499,-3.269 -3.455,-9.257 -3.455,-9.257s42.285,-25.53 46.386,-20.035zm-0.386,46.188c-8.038,-16.083 -41,-2.829 -41,-2.829s32.962,11.04 41,2.829z" id="svg_3"/>
   </g>
</svg>