<svg width="300" height="43" xmlns="http://www.w3.org/2000/svg" class="iconLeft">
  <linearGradient gradientTransform="rotate(25)" id="e87caf18-7995-40bd-8843-31ae49a0e6e0" x1="0%" y1="0%" x2="100%" y2="0%">
   <stop offset="0%" stop-color="#D4C28E"/>
   <stop offset="100%" stop-color="#DDAD24"/>
  </linearGradient>
   <g stroke="null" id="d8b8ba7d-ee55-460c-995e-7f5c49f4b263" fill="#000000" transform="matrix(2.5122129892086478,0,0,2.5122129892086478,108.37372310675649,181.6843253582718) ">
    <path stroke="null" d="m-14.63211,-67.91418l0,0q0.07,0 0.12,0.05l0,0l0,0q0.05,0.05 0.05,0.12l0,0l0,0.32l0,0q0,0.07 -0.05,0.12l0,0l0,0q-0.05,0.05 -0.12,0.05l0,0l-2.77,0l0,0q-0.05,0 -0.05,0.05l0,0l0,8.92l0,0q0,0.07 -0.05,0.12l0,0l0,0q-0.05,0.05 -0.12,0.05l0,0l-0.41,0l0,0q-0.07,0 -0.12,-0.05l0,0l0,0q-0.05,-0.05 -0.05,-0.12l0,0l0,-8.92l0,0q0,-0.05 -0.05,-0.05l0,0l-2.63,0l0,0q-0.07,0 -0.12,-0.05l0,0l0,0q-0.05,-0.05 -0.05,-0.12l0,0l0,-0.32l0,0q0,-0.07 0.05,-0.12l0,0l0,0q0.05,-0.05 0.12,-0.05l0,0l6.25,0zm7.93,0.17l0,0q0,-0.07 0.05,-0.12l0,0l0,0q0.05,-0.05 0.12,-0.05l0,0l0.4,0l0,0q0.07,0 0.12,0.05l0,0l0,0q0.05,0.05 0.05,0.12l0,0l0,9.46l0,0q0,0.07 -0.05,0.12l0,0l0,0q-0.05,0.05 -0.12,0.05l0,0l-0.4,0l0,0q-0.07,0 -0.12,-0.05l0,0l0,0q-0.05,-0.05 -0.05,-0.12l0,0l0,-4.37l0,0q0,-0.05 -0.06,-0.05l0,0l-4.81,0l0,0q-0.06,0 -0.06,0.05l0,0l0,4.37l0,0q0,0.07 -0.05,0.12l0,0l0,0q-0.05,0.05 -0.12,0.05l0,0l-0.4,0l0,0q-0.07,0 -0.12,-0.05l0,0l0,0q-0.05,-0.05 -0.05,-0.12l0,0l0,-9.46l0,0q0,-0.07 0.05,-0.12l0,0l0,0q0.05,-0.05 0.12,-0.05l0,0l0.4,0l0,0q0.07,0 0.12,0.05l0,0l0,0q0.05,0.05 0.05,0.12l0,0l0,4.32l0,0q0,0.06 0.06,0.06l0,0l4.81,0l0,0q0.06,0 0.06,-0.06l0,0l0,-4.32zm9.42,9.63l0,0q-0.13,0 -0.2,-0.13l0,0l-2.15,-4.45l0,0q-0.02,-0.04 -0.06,-0.04l0,0l-2.63,0l0,0q-0.06,0 -0.06,0.06l0,0l0,4.39l0,0q0,0.07 -0.04,0.12l0,0l0,0q-0.05,0.05 -0.12,0.05l0,0l-0.41,0l0,0q-0.07,0 -0.12,-0.05l0,0l0,0q-0.05,-0.05 -0.05,-0.12l0,0l0,-9.49l0,0q0,-0.07 0.05,-0.12l0,0l0,0q0.05,-0.05 0.12,-0.05l0,0l3.5,0l0,0q1.18,0 1.9,0.73l0,0l0,0q0.72,0.73 0.72,1.9l0,0l0,0q0,1.01 -0.55,1.69l0,0l0,0q-0.56,0.68 -1.48,0.83l0,0l0,0q-0.07,0.03 -0.04,0.07l0,0l2.14,4.41l0,0q0.03,0.06 0.03,0.09l0,0l0,0q0,0.11 -0.16,0.11l0,0l-0.39,0zm-5.04,-9.16l0,0q-0.06,0 -0.06,0.06l0,0l0,3.81l0,0q0,0.05 0.06,0.05l0,0l2.8,0l0,0q0.87,0 1.41,-0.54l0,0l0,0q0.54,-0.53 0.54,-1.4l0,0l0,0q0,-0.9 -0.54,-1.44l0,0l0,0q-0.54,-0.54 -1.41,-0.54l0,0l-2.8,0zm14.01,-0.15l0,0q0,0.07 -0.05,0.12l0,0l0,0q-0.04,0.05 -0.11,0.05l0,0l-5.28,0l0,0q-0.06,0 -0.06,0.05l0,0l0,3.78l0,0q0,0.06 0.06,0.06l0,0l3.74,0l0,0q0.07,0 0.11,0.05l0,0l0,0q0.05,0.05 0.05,0.12l0,0l0,0.32l0,0q0,0.07 -0.05,0.12l0,0l0,0q-0.04,0.05 -0.11,0.05l0,0l-3.74,0l0,0q-0.06,0 -0.06,0.05l0,0l0,3.83l0,0q0,0.05 0.06,0.05l0,0l5.28,0l0,0q0.07,0 0.11,0.05l0,0l0,0q0.05,0.05 0.05,0.12l0,0l0,0.32l0,0q0,0.07 -0.05,0.12l0,0l0,0q-0.04,0.05 -0.11,0.05l0,0l-5.91,0l0,0q-0.07,0 -0.12,-0.05l0,0l0,0q-0.05,-0.05 -0.05,-0.12l0,0l0,-9.46l0,0q0,-0.07 0.05,-0.12l0,0l0,0q0.05,-0.05 0.12,-0.05l0,0l5.91,0l0,0q0.07,0 0.11,0.05l0,0l0,0q0.05,0.05 0.05,0.12l0,0l0,0.32zm8.56,0l0,0q0,0.07 -0.05,0.12l0,0l0,0q-0.05,0.05 -0.12,0.05l0,0l-5.28,0l0,0q-0.05,0 -0.05,0.05l0,0l0,3.78l0,0q0,0.06 0.05,0.06l0,0l3.74,0l0,0q0.07,0 0.12,0.05l0,0l0,0q0.05,0.05 0.05,0.12l0,0l0,0.32l0,0q0,0.07 -0.05,0.12l0,0l0,0q-0.05,0.05 -0.12,0.05l0,0l-3.74,0l0,0q-0.05,0 -0.05,0.05l0,0l0,3.83l0,0q0,0.05 0.05,0.05l0,0l5.28,0l0,0q0.07,0 0.12,0.05l0,0l0,0q0.05,0.05 0.05,0.12l0,0l0,0.32l0,0q0,0.07 -0.05,0.12l0,0l0,0q-0.05,0.05 -0.12,0.05l0,0l-5.91,0l0,0q-0.07,0 -0.12,-0.05l0,0l0,0q-0.05,-0.05 -0.05,-0.12l0,0l0,-9.46l0,0q0,-0.07 0.05,-0.12l0,0l0,0q0.05,-0.05 0.12,-0.05l0,0l5.91,0l0,0q0.07,0 0.12,0.05l0,0l0,0q0.05,0.05 0.05,0.12l0,0l0,0.32zm7.84,9.42l0,0q-1.51,0 -2.4,-0.69l0,0l0,0q-0.89,-0.69 -0.89,-1.86l0,0l0,-0.43l0,0q0,-0.07 0.05,-0.12l0,0l0,0q0.05,-0.05 0.12,-0.05l0,0l0.37,0l0,0q0.07,0 0.12,0.05l0,0l0,0q0.05,0.05 0.05,0.12l0,0l0,0.39l0,0q0,0.87 0.72,1.4l0,0l0,0q0.71,0.53 1.93,0.53l0,0l0,0q1.16,0 1.77,-0.48l0,0l0,0q0.61,-0.48 0.61,-1.34l0,0l0,0q0,-0.51 -0.27,-0.9l0,0l0,0q-0.26,-0.38 -0.84,-0.72l0,0l0,0q-0.57,-0.34 -1.59,-0.77l0,0l0,0q-1.1,-0.46 -1.66,-0.77l0,0l0,0q-0.56,-0.31 -0.89,-0.78l0,0l0,0q-0.34,-0.47 -0.34,-1.21l0,0l0,0q0,-1.15 0.79,-1.77l0,0l0,0q0.79,-0.62 2.19,-0.62l0,0l0,0q1.54,0 2.41,0.7l0,0l0,0q0.86,0.7 0.86,1.87l0,0l0,0.3l0,0q0,0.07 -0.05,0.12l0,0l0,0q-0.05,0.05 -0.12,0.05l0,0l-0.41,0l0,0q-0.07,0 -0.12,-0.05l0,0l0,0q-0.05,-0.05 -0.05,-0.12l0,0l0,-0.25l0,0q0,-0.89 -0.67,-1.42l0,0l0,0q-0.67,-0.54 -1.89,-0.54l0,0l0,0q-1.06,0 -1.64,0.44l0,0l0,0q-0.57,0.44 -0.57,1.26l0,0l0,0q0,0.56 0.27,0.91l0,0l0,0q0.26,0.35 0.76,0.61l0,0l0,0q0.5,0.26 1.53,0.68l0,0l0,0q1.04,0.42 1.68,0.81l0,0l0,0q0.63,0.38 1,0.9l0,0l0,0q0.36,0.52 0.36,1.25l0,0l0,0q0,1.13 -0.84,1.82l0,0l0,0q-0.84,0.68 -2.35,0.68l0,0zm5.61,-0.11l0,0q-0.07,0 -0.12,-0.05l0,0l0,0q-0.05,-0.05 -0.05,-0.12l0,0l0,-9.46l0,0q0,-0.07 0.05,-0.12l0,0l0,0q0.05,-0.05 0.12,-0.05l0,0l0.41,0l0,0q0.07,0 0.12,0.05l0,0l0,0q0.05,0.05 0.05,0.12l0,0l0,9.46l0,0q0,0.07 -0.05,0.12l0,0l0,0q-0.05,0.05 -0.12,0.05l0,0l-0.41,0zm6.18,0.11l0,0q-1.52,0 -2.4,-0.69l0,0l0,0q-0.89,-0.69 -0.89,-1.86l0,0l0,-0.43l0,0q0,-0.07 0.05,-0.12l0,0l0,0q0.04,-0.05 0.11,-0.05l0,0l0.38,0l0,0q0.07,0 0.12,0.05l0,0l0,0q0.05,0.05 0.05,0.12l0,0l0,0.39l0,0q0,0.87 0.71,1.4l0,0l0,0q0.72,0.53 1.94,0.53l0,0l0,0q1.16,0 1.77,-0.48l0,0l0,0q0.61,-0.48 0.61,-1.34l0,0l0,0q0,-0.51 -0.27,-0.9l0,0l0,0q-0.27,-0.38 -0.84,-0.72l0,0l0,0q-0.57,-0.34 -1.6,-0.77l0,0l0,0q-1.09,-0.46 -1.65,-0.77l0,0l0,0q-0.56,-0.31 -0.89,-0.78l0,0l0,0q-0.34,-0.47 -0.34,-1.21l0,0l0,0q0,-1.15 0.79,-1.77l0,0l0,0q0.79,-0.62 2.19,-0.62l0,0l0,0q1.54,0 2.4,0.7l0,0l0,0q0.86,0.7 0.86,1.87l0,0l0,0.3l0,0q0,0.07 -0.04,0.12l0,0l0,0q-0.05,0.05 -0.12,0.05l0,0l-0.41,0l0,0q-0.07,0 -0.12,-0.05l0,0l0,0q-0.05,-0.05 -0.05,-0.12l0,0l0,-0.25l0,0q0,-0.89 -0.67,-1.42l0,0l0,0q-0.67,-0.54 -1.89,-0.54l0,0l0,0q-1.06,0 -1.64,0.44l0,0l0,0q-0.57,0.44 -0.57,1.26l0,0l0,0q0,0.56 0.26,0.91l0,0l0,0q0.27,0.35 0.77,0.61l0,0l0,0q0.49,0.26 1.53,0.68l0,0l0,0q1.04,0.42 1.67,0.81l0,0l0,0q0.64,0.38 1,0.9l0,0l0,0q0.37,0.52 0.37,1.25l0,0l0,0q0,1.13 -0.84,1.82l0,0l0,0q-0.84,0.68 -2.35,0.68l0,0zm11.1,-9.91l0,0q0.07,0 0.12,0.05l0,0l0,0q0.05,0.05 0.05,0.12l0,0l0,0.32l0,0q0,0.07 -0.05,0.12l0,0l0,0q-0.05,0.05 -0.12,0.05l0,0l-2.77,0l0,0q-0.06,0 -0.06,0.05l0,0l0,8.92l0,0q0,0.07 -0.05,0.12l0,0l0,0q-0.05,0.05 -0.12,0.05l0,0l-0.4,0l0,0q-0.07,0 -0.12,-0.05l0,0l0,0q-0.05,-0.05 -0.05,-0.12l0,0l0,-8.92l0,0q0,-0.05 -0.06,-0.05l0,0l-2.63,0l0,0q-0.07,0 -0.12,-0.05l0,0l0,0q-0.05,-0.05 -0.05,-0.12l0,0l0,-0.32l0,0q0,-0.07 0.05,-0.12l0,0l0,0q0.05,-0.05 0.12,-0.05l0,0l6.26,0zm8.5,0.49l0,0q0,0.07 -0.05,0.12l0,0l0,0q-0.05,0.05 -0.12,0.05l0,0l-5.28,0l0,0q-0.06,0 -0.06,0.05l0,0l0,3.78l0,0q0,0.06 0.06,0.06l0,0l3.74,0l0,0q0.07,0 0.12,0.05l0,0l0,0q0.05,0.05 0.05,0.12l0,0l0,0.32l0,0q0,0.07 -0.05,0.12l0,0l0,0q-0.05,0.05 -0.12,0.05l0,0l-3.74,0l0,0q-0.06,0 -0.06,0.05l0,0l0,3.83l0,0q0,0.05 0.06,0.05l0,0l5.28,0l0,0q0.07,0 0.12,0.05l0,0l0,0q0.05,0.05 0.05,0.12l0,0l0,0.32l0,0q0,0.07 -0.05,0.12l0,0l0,0q-0.05,0.05 -0.12,0.05l0,0l-5.91,0l0,0q-0.07,0 -0.12,-0.05l0,0l0,0q-0.05,-0.05 -0.05,-0.12l0,0l0,-9.46l0,0q0,-0.07 0.05,-0.12l0,0l0,0q0.05,-0.05 0.12,-0.05l0,0l5.91,0l0,0q0.07,0 0.12,0.05l0,0l0,0q0.05,0.05 0.05,0.12l0,0l0,0.32zm8.14,9.31l0,0q-0.12,0 -0.19,-0.13l0,0l-2.16,-4.45l0,0q-0.01,-0.04 -0.05,-0.04l0,0l-2.64,0l0,0q-0.05,0 -0.05,0.06l0,0l0,4.39l0,0q0,0.07 -0.05,0.12l0,0l0,0q-0.05,0.05 -0.12,0.05l0,0l-0.41,0l0,0q-0.07,0 -0.11,-0.05l0,0l0,0q-0.05,-0.05 -0.05,-0.12l0,0l0,-9.49l0,0q0,-0.07 0.05,-0.12l0,0l0,0q0.04,-0.05 0.11,-0.05l0,0l3.5,0l0,0q1.18,0 1.9,0.73l0,0l0,0q0.72,0.73 0.72,1.9l0,0l0,0q0,1.01 -0.55,1.69l0,0l0,0q-0.55,0.68 -1.48,0.83l0,0l0,0q-0.07,0.03 -0.04,0.07l0,0l2.14,4.41l0,0q0.03,0.06 0.03,0.09l0,0l0,0q0,0.11 -0.15,0.11l0,0l-0.4,0zm-5.04,-9.16l0,0q-0.05,0 -0.05,0.06l0,0l0,3.81l0,0q0,0.05 0.05,0.05l0,0l2.8,0l0,0q0.87,0 1.41,-0.54l0,0l0,0q0.54,-0.53 0.54,-1.4l0,0l0,0q0,-0.9 -0.54,-1.44l0,0l0,0q-0.54,-0.54 -1.41,-0.54l0,0l-2.8,0zm10.5,9.27l0,0q-1.51,0 -2.4,-0.69l0,0l0,0q-0.89,-0.69 -0.89,-1.86l0,0l0,-0.43l0,0q0,-0.07 0.05,-0.12l0,0l0,0q0.05,-0.05 0.12,-0.05l0,0l0.38,0l0,0q0.07,0 0.12,0.05l0,0l0,0q0.05,0.05 0.05,0.12l0,0l0,0.39l0,0q0,0.87 0.71,1.4l0,0l0,0q0.72,0.53 1.93,0.53l0,0l0,0q1.17,0 1.77,-0.48l0,0l0,0q0.61,-0.48 0.61,-1.34l0,0l0,0q0,-0.51 -0.26,-0.9l0,0l0,0q-0.27,-0.38 -0.84,-0.72l0,0l0,0q-0.58,-0.34 -1.6,-0.77l0,0l0,0q-1.09,-0.46 -1.65,-0.77l0,0l0,0q-0.56,-0.31 -0.9,-0.78l0,0l0,0q-0.33,-0.47 -0.33,-1.21l0,0l0,0q0,-1.15 0.79,-1.77l0,0l0,0q0.79,-0.62 2.19,-0.62l0,0l0,0q1.54,0 2.4,0.7l0,0l0,0q0.86,0.7 0.86,1.87l0,0l0,0.3l0,0q0,0.07 -0.05,0.12l0,0l0,0q-0.05,0.05 -0.12,0.05l0,0l-0.4,0l0,0q-0.07,0 -0.12,-0.05l0,0l0,0q-0.05,-0.05 -0.05,-0.12l0,0l0,-0.25l0,0q0,-0.89 -0.67,-1.42l0,0l0,0q-0.67,-0.54 -1.89,-0.54l0,0l0,0q-1.07,0 -1.64,0.44l0,0l0,0q-0.57,0.44 -0.57,1.26l0,0l0,0q0,0.56 0.26,0.91l0,0l0,0q0.27,0.35 0.76,0.61l0,0l0,0q0.5,0.26 1.54,0.68l0,0l0,0q1.03,0.42 1.67,0.81l0,0l0,0q0.64,0.38 1,0.9l0,0l0,0q0.37,0.52 0.37,1.25l0,0l0,0q0,1.13 -0.84,1.82l0,0l0,0q-0.84,0.68 -2.36,0.68l0,0z" id="svg_2"/>
   </g>
   <g stroke="null" id="217246dc-f7a1-4a27-b536-279b2a7c9079" fill="url(#e87caf18-7995-40bd-8843-31ae49a0e6e0)" transform="matrix(0.49856155086496884,0,0,0.49856155086496884,50.989716068792816,182.11044267540498) ">
    <path stroke="null" d="m-102.27366,-356.24577l0,60.211l6.703,0l0,-53.508l62.33,0l0,62.329l-56.912,0l0,0.002l-12.121,0l0,6.701l75.736,0l0,-75.735l-75.736,0z" id="svg_3"/>
   </g>
</svg>