<svg data-v-fde0c5aa="" xmlns="http://www.w3.org/2000/svg" viewBox="0 0 300 300" class="icon"><!----><defs data-v-fde0c5aa=""><!----></defs><rect data-v-fde0c5aa="" fill="transparent" x="0" y="0" width="300px" height="300px" class="logo-background-square"></rect><!----><defs data-v-fde0c5aa=""><linearGradient data-v-fde0c5aa="" gradientTransform="rotate(25)" id="18024e06-e6f7-4028-88b7-f053a8311172" x1="0%" y1="0%" x2="100%" y2="0%"><stop data-v-fde0c5aa="" offset="0%" stop-color="#913C00" stop-opacity="1"></stop><stop data-v-fde0c5aa="" offset="100%" stop-color="#D9AD76" stop-opacity="1"></stop></linearGradient></defs><g data-v-fde0c5aa="" id="c5b441a7-f50a-471f-87ae-6cf2ad2ed5c2" fill="url(#18024e06-e6f7-4028-88b7-f053a8311172)" stroke="none" transform="matrix(1.8965476078118253,0,0,1.8965476078118253,40.00023422519227,61.810463889200385)"><path d="M59 47.339C54.763 56.806 45.296 79.546 45.644 93c-8.98-1.17-10.551-19.502-10.551-19.502s-9.346 2.037-18.991 11.076c-7.093-20.743 22.37-35.502 22.37-35.502l10.117-2.685L49.609 43H68.39l1.021 3.387 10.117 2.685s29.463 14.759 22.37 35.502c-9.645-9.039-18.99-11.076-18.99-11.076S81.336 91.829 72.355 93C72.704 79.546 63.237 56.806 59 47.339zM52.318 21s-2.572 6.644-3.09 10c-.512 3.31 0 10 0 10h18.545s.511-6.69 0-10c-.52-3.357-3.091-10-3.091-10H52.318zM3.614.775c-5.763 19.95-3.773 32.418 0 43.225 8.102-14.516 43.5-2.97 43.5-2.97s-1.085-7.582-.569-10.963C47.044 26.798 50 20.81 50 20.81S7.715-4.72 3.614.775zM5 46.963c8.038-16.083 41-2.829 41-2.829s-32.962 11.04-41 2.829zM112.386.775c5.763 19.95 3.773 32.418 0 43.225-8.102-14.516-43.5-2.97-43.5-2.97s1.085-7.582.569-10.963C68.956 26.798 66 20.81 66 20.81S108.285-4.72 112.386.775zM112 46.963c-8.038-16.083-41-2.829-41-2.829s32.962 11.04 41 2.829z"></path></g><!----></svg>