<svg width="300" height="50" xmlns="http://www.w3.org/2000/svg" class="fontAboveSlogan">
 <!---->
 <defs>
  <!---->
 </defs>
 <defs>
  <!---->
 </defs>
 <!---->
 <defs>
  <!---->
 </defs>
 <g>
  <title>background</title>
  <rect x="-1" y="-1" width="302" height="52" id="canvas_background" fill="none"/>
 </g>
 <g>
  <title>Layer 1</title>
  <g stroke="null" id="svg_4">
   <g stroke="null" id="85db0dd4-7a96-426f-b259-3c5dd9de1934" fill="#000000" transform="matrix(2.2692367803567985,0,0,2.2692367803567985,60.88642024200224,140.8656783807222) ">
    <path stroke="null" d="m-3.14816,-61.08488l0,0q0.14,0 0.14,0.14l0,0l0,0.21l0,0q0,0.14 -0.14,0.14l0,0l-2.81,0l0,0q-0.06,0 -0.06,0.06l0,0l0,9.11l0,0q0,0.14 -0.14,0.14l0,0l-0.26,0l0,0q-0.14,0 -0.14,-0.14l0,0l0,-9.11l0,0q0,-0.06 -0.06,-0.06l0,0l-2.7,0l0,0q-0.14,0 -0.14,-0.14l0,0l0,-0.21l0,0q0,-0.14 0.14,-0.14l0,0l6.17,0zm8.12,0.14l0,0q0,-0.14 0.14,-0.14l0,0l0.27,0l0,0q0.14,0 0.14,0.14l0,0l0,9.52l0,0q0,0.14 -0.14,0.14l0,0l-0.27,0l0,0q-0.14,0 -0.14,-0.14l0,0l0,-4.47l0,0q0,-0.05 -0.05,-0.05l0,0l-5.08,0l0,0q-0.06,0 -0.06,0.05l0,0l0,4.47l0,0q0,0.14 -0.14,0.14l0,0l-0.27,0l0,0q-0.14,0 -0.14,-0.14l0,0l0,-9.52l0,0q0,-0.14 0.14,-0.14l0,0l0.27,0l0,0q0.14,0 0.14,0.14l0,0l0,4.44l0,0q0,0.05 0.06,0.05l0,0l5.08,0l0,0q0.05,0 0.05,-0.05l0,0l0,-4.44zm9.47,9.66l0,0q-0.13,0 -0.17,-0.1l0,0l-2.21,-4.56l0,0q-0.02,-0.04 -0.06,-0.04l0,0l-2.84,0l0,0q-0.06,0 -0.06,0.05l0,0l0,4.51l0,0q0,0.14 -0.14,0.14l0,0l-0.26,0l0,0q-0.14,0 -0.14,-0.14l0,0l0,-9.55l0,0q0,-0.14 0.14,-0.14l0,0l3.43,0l0,0q1.15,0 1.85,0.72l0,0l0,0q0.71,0.71 0.71,1.87l0,0l0,0q0,1 -0.55,1.67l0,0l0,0q-0.56,0.67 -1.49,0.82l0,0l0,0q-0.07,0.03 -0.05,0.07l0,0l2.19,4.51l0,0q0.01,0.03 0.01,0.07l0,0l0,0q0,0.1 -0.11,0.1l0,0l-0.25,0zm-5.28,-9.32l0,0q-0.06,0 -0.06,0.05l0,0l0,4.03l0,0q0,0.06 0.06,0.06l0,0l2.95,0l0,0q0.91,0 1.47,-0.57l0,0l0,0q0.56,-0.58 0.56,-1.49l0,0l0,0q0,-0.94 -0.56,-1.51l0,0l0,0q-0.56,-0.57 -1.47,-0.57l0,0l-2.95,0zm14.1,-0.13l0,0q0,0.14 -0.14,0.14l0,0l-5.41,0l0,0q-0.05,0 -0.05,0.06l0,0l0,4.03l0,0q0,0.05 0.05,0.05l0,0l3.87,0l0,0q0.14,0 0.14,0.14l0,0l0,0.23l0,0q0,0.14 -0.14,0.14l0,0l-3.87,0l0,0q-0.05,0 -0.05,0.05l0,0l0,4.06l0,0q0,0.06 0.05,0.06l0,0l5.41,0l0,0q0.14,0 0.14,0.14l0,0l0,0.21l0,0q0,0.14 -0.14,0.14l0,0l-5.87,0l0,0q-0.14,0 -0.14,-0.14l0,0l0,-9.52l0,0q0,-0.14 0.14,-0.14l0,0l5.87,0l0,0q0.14,0 0.14,0.14l0,0l0,0.21zm8.61,0l0,0q0,0.14 -0.14,0.14l0,0l-5.41,0l0,0q-0.05,0 -0.05,0.06l0,0l0,4.03l0,0q0,0.05 0.05,0.05l0,0l3.87,0l0,0q0.14,0 0.14,0.14l0,0l0,0.23l0,0q0,0.14 -0.14,0.14l0,0l-3.87,0l0,0q-0.05,0 -0.05,0.05l0,0l0,4.06l0,0q0,0.06 0.05,0.06l0,0l5.41,0l0,0q0.14,0 0.14,0.14l0,0l0,0.21l0,0q0,0.14 -0.14,0.14l0,0l-5.87,0l0,0q-0.14,0 -0.14,-0.14l0,0l0,-9.52l0,0q0,-0.14 0.14,-0.14l0,0l5.87,0l0,0q0.14,0 0.14,0.14l0,0l0,0.21zm7.89,9.56l0,0q-1.49,0 -2.37,-0.67l0,0l0,0q-0.87,-0.67 -0.87,-1.81l0,0l0,-0.49l0,0q0,-0.14 0.14,-0.14l0,0l0.23,0l0,0q0.14,0 0.14,0.14l0,0l0,0.45l0,0q0,0.91 0.75,1.47l0,0l0,0q0.75,0.56 2.03,0.56l0,0l0,0q1.23,0 1.89,-0.52l0,0l0,0q0.65,-0.51 0.65,-1.41l0,0l0,0q0,-0.56 -0.28,-0.97l0,0l0,0q-0.28,-0.4 -0.86,-0.76l0,0l0,0q-0.59,-0.36 -1.67,-0.82l0,0l0,0q-1.09,-0.46 -1.65,-0.77l0,0l0,0q-0.55,-0.31 -0.87,-0.77l0,0l0,0q-0.32,-0.46 -0.32,-1.17l0,0l0,0q0,-1.14 0.76,-1.74l0,0l0,0q0.76,-0.6 2.15,-0.6l0,0l0,0q1.51,0 2.35,0.68l0,0l0,0q0.84,0.68 0.84,1.82l0,0l0,0.34l0,0q0,0.14 -0.14,0.14l0,0l-0.26,0l0,0q-0.14,0 -0.14,-0.14l0,0l0,-0.29l0,0q0,-0.94 -0.7,-1.5l0,0l0,0q-0.7,-0.56 -1.98,-0.56l0,0l0,0q-1.13,0 -1.74,0.47l0,0l0,0q-0.61,0.47 -0.61,1.35l0,0l0,0q0,0.59 0.27,0.95l0,0l0,0q0.28,0.36 0.79,0.64l0,0l0,0q0.51,0.27 1.57,0.7l0,0l0,0q1.05,0.44 1.7,0.84l0,0l0,0q0.64,0.4 0.99,0.91l0,0l0,0q0.35,0.51 0.35,1.21l0,0l0,0q0,1.12 -0.82,1.79l0,0l0,0q-0.82,0.67 -2.32,0.67l0,0zm5.67,-0.11l0,0q-0.14,0 -0.14,-0.14l0,0l0,-9.52l0,0q0,-0.14 0.14,-0.14l0,0l0.27,0l0,0q0.14,0 0.14,0.14l0,0l0,9.52l0,0q0,0.14 -0.14,0.14l0,0l-0.27,0zm6.09,0.11l0,0q-1.49,0 -2.37,-0.67l0,0l0,0q-0.87,-0.67 -0.87,-1.81l0,0l0,-0.49l0,0q0,-0.14 0.14,-0.14l0,0l0.23,0l0,0q0.14,0 0.14,0.14l0,0l0,0.45l0,0q0,0.91 0.75,1.47l0,0l0,0q0.75,0.56 2.03,0.56l0,0l0,0q1.23,0 1.89,-0.52l0,0l0,0q0.65,-0.51 0.65,-1.41l0,0l0,0q0,-0.56 -0.28,-0.97l0,0l0,0q-0.28,-0.4 -0.86,-0.76l0,0l0,0q-0.59,-0.36 -1.67,-0.82l0,0l0,0q-1.09,-0.46 -1.65,-0.77l0,0l0,0q-0.55,-0.31 -0.87,-0.77l0,0l0,0q-0.32,-0.46 -0.32,-1.17l0,0l0,0q0,-1.14 0.76,-1.74l0,0l0,0q0.76,-0.6 2.15,-0.6l0,0l0,0q1.51,0 2.35,0.68l0,0l0,0q0.84,0.68 0.84,1.82l0,0l0,0.34l0,0q0,0.14 -0.14,0.14l0,0l-0.26,0l0,0q-0.14,0 -0.14,-0.14l0,0l0,-0.29l0,0q0,-0.94 -0.7,-1.5l0,0l0,0q-0.7,-0.56 -1.98,-0.56l0,0l0,0q-1.13,0 -1.74,0.47l0,0l0,0q-0.61,0.47 -0.61,1.35l0,0l0,0q0,0.59 0.27,0.95l0,0l0,0q0.28,0.36 0.79,0.64l0,0l0,0q0.51,0.27 1.57,0.7l0,0l0,0q1.05,0.44 1.7,0.84l0,0l0,0q0.64,0.4 0.99,0.91l0,0l0,0q0.35,0.51 0.35,1.21l0,0l0,0q0,1.12 -0.82,1.79l0,0l0,0q-0.82,0.67 -2.32,0.67l0,0zm11.02,-9.91l0,0q0.14,0 0.14,0.14l0,0l0,0.21l0,0q0,0.14 -0.14,0.14l0,0l-2.81,0l0,0q-0.06,0 -0.06,0.06l0,0l0,9.11l0,0q0,0.14 -0.14,0.14l0,0l-0.26,0l0,0q-0.14,0 -0.14,-0.14l0,0l0,-9.11l0,0q0,-0.06 -0.06,-0.06l0,0l-2.7,0l0,0q-0.14,0 -0.14,-0.14l0,0l0,-0.21l0,0q0,-0.14 0.14,-0.14l0,0l6.17,0zm8.53,0.35l0,0q0,0.14 -0.14,0.14l0,0l-5.41,0l0,0q-0.05,0 -0.05,0.06l0,0l0,4.03l0,0q0,0.05 0.05,0.05l0,0l3.87,0l0,0q0.14,0 0.14,0.14l0,0l0,0.23l0,0q0,0.14 -0.14,0.14l0,0l-3.87,0l0,0q-0.05,0 -0.05,0.05l0,0l0,4.06l0,0q0,0.06 0.05,0.06l0,0l5.41,0l0,0q0.14,0 0.14,0.14l0,0l0,0.21l0,0q0,0.14 -0.14,0.14l0,0l-5.87,0l0,0q-0.14,0 -0.14,-0.14l0,0l0,-9.52l0,0q0,-0.14 0.14,-0.14l0,0l5.87,0l0,0q0.14,0 0.14,0.14l0,0l0,0.21zm8.34,9.45l0,0q-0.12,0 -0.17,-0.1l0,0l-2.21,-4.56l0,0q-0.01,-0.04 -0.05,-0.04l0,0l-2.85,0l0,0q-0.05,0 -0.05,0.05l0,0l0,4.51l0,0q0,0.14 -0.14,0.14l0,0l-0.27,0l0,0q-0.14,0 -0.14,-0.14l0,0l0,-9.55l0,0q0,-0.14 0.14,-0.14l0,0l3.43,0l0,0q1.15,0 1.86,0.72l0,0l0,0q0.7,0.71 0.7,1.87l0,0l0,0q0,1 -0.55,1.67l0,0l0,0q-0.55,0.67 -1.49,0.82l0,0l0,0q-0.07,0.03 -0.04,0.07l0,0l2.18,4.51l0,0q0.02,0.03 0.02,0.07l0,0l0,0q0,0.1 -0.12,0.1l0,0l-0.25,0zm-5.28,-9.32l0,0q-0.05,0 -0.05,0.05l0,0l0,4.03l0,0q0,0.06 0.05,0.06l0,0l2.96,0l0,0q0.91,0 1.47,-0.57l0,0l0,0q0.56,-0.58 0.56,-1.49l0,0l0,0q0,-0.94 -0.56,-1.51l0,0l0,0q-0.56,-0.57 -1.47,-0.57l0,0l-2.96,0zm10.59,9.43l0,0q-1.5,0 -2.38,-0.67l0,0l0,0q-0.87,-0.67 -0.87,-1.81l0,0l0,-0.49l0,0q0,-0.14 0.14,-0.14l0,0l0.24,0l0,0q0.14,0 0.14,0.14l0,0l0,0.45l0,0q0,0.91 0.75,1.47l0,0l0,0q0.75,0.56 2.02,0.56l0,0l0,0q1.23,0 1.89,-0.52l0,0l0,0q0.66,-0.51 0.66,-1.41l0,0l0,0q0,-0.56 -0.28,-0.97l0,0l0,0q-0.28,-0.4 -0.87,-0.76l0,0l0,0q-0.59,-0.36 -1.67,-0.82l0,0l0,0q-1.09,-0.46 -1.64,-0.77l0,0l0,0q-0.55,-0.31 -0.88,-0.77l0,0l0,0q-0.32,-0.46 -0.32,-1.17l0,0l0,0q0,-1.14 0.77,-1.74l0,0l0,0q0.76,-0.6 2.14,-0.6l0,0l0,0q1.52,0 2.36,0.68l0,0l0,0q0.84,0.68 0.84,1.82l0,0l0,0.34l0,0q0,0.14 -0.14,0.14l0,0l-0.27,0l0,0q-0.14,0 -0.14,-0.14l0,0l0,-0.29l0,0q0,-0.94 -0.7,-1.5l0,0l0,0q-0.7,-0.56 -1.97,-0.56l0,0l0,0q-1.14,0 -1.75,0.47l0,0l0,0q-0.61,0.47 -0.61,1.35l0,0l0,0q0,0.59 0.28,0.95l0,0l0,0q0.27,0.36 0.78,0.64l0,0l0,0q0.51,0.27 1.58,0.7l0,0l0,0q1.05,0.44 1.69,0.84l0,0l0,0q0.64,0.4 0.99,0.91l0,0l0,0q0.35,0.51 0.35,1.21l0,0l0,0q0,1.12 -0.82,1.79l0,0l0,0q-0.81,0.67 -2.31,0.67l0,0z" id="svg_2"/>
   </g>
   <g stroke="null" id="7b93fed2-e36b-48b4-a596-00dbb2f7a0c1" fill="#000000" transform="matrix(1.2817221931904947,0,0,1.2817221931904947,22.5898610482421,177.10443280343017) ">
    <path stroke="null" d="m-13.58462,-108.60422l-1.36,3.77l2.68,0l-1.32,-3.77zm-1.32,7.42l-2.72,0l0.03,-0.29l0.97,-0.21l2.99,-8.08l0.37,-0.09l2.83,8.22l0.91,0.13l-0.06,0.31l-2.79,0l0.06,-0.29l1.13,-0.2l-0.95,-2.77l-2.95,0l-1.01,2.82l1.25,0.13l-0.06,0.32zm14.88,-8.22l0,3.93l1.56,0l0,0q0.68,-0.25 1.14,-0.83l0,0l0,0q0.46,-0.58 0.46,-1.26l0,0l0,0q0,-0.91 -0.62,-1.39l0,0l0,0q-0.62,-0.48 -1.71,-0.48l0,0l-0.83,0.03zm1.38,8.22l-3.19,0l0.04,-0.29l1.07,-0.21l0,-7.39l-1.09,-0.14l0.06,-0.24l0,0q1.82,-0.3 2.9,-0.3l0,0l0,0q0.77,0 1.38,0.22l0,0l0,0q0.61,0.22 0.98,0.68l0,0l0,0q0.38,0.46 0.38,1.1l0,0l0,0q0,0.74 -0.43,1.31l0,0l0,0q-0.43,0.58 -1.46,1.09l0,0l0,0l1.32,1.96l0,0q0.71,1.04 1.06,1.39l0,0l0,0q0.34,0.34 0.72,0.47l0,0l0.33,0.11l-0.04,0.26l0,0q-0.29,0.1 -0.63,0.1l0,0l0,0q-0.29,0 -0.54,-0.12l0,0l0,0q-0.26,-0.12 -0.5,-0.39l0,0l0,0q-0.24,-0.26 -0.43,-0.53l0,0l0,0q-0.18,-0.26 -0.45,-0.71l0,0l-1.39,-2.28l-1.47,0l0,3.46l1.45,0.13l-0.07,0.32zm11.83,-6.31l-0.07,-2.2l7.06,0l-0.24,2.27l-0.34,-0.04l-0.12,-1.88l-2.54,0l0,7.66l1.21,0.18l-0.07,0.32l-3.1,0l0.04,-0.29l1.19,-0.21l0,-7.66l-2.43,0l-0.24,1.91l-0.35,-0.06zm26.29,-0.71l0,0l0,0q0,0.71 1.05,2.02l0,0l0,0q0.65,-0.49 1,-0.92l0,0l0,0q0.35,-0.43 0.35,-0.92l0,0l0,0q0,-0.59 -0.37,-1.02l0,0l0,0q-0.37,-0.43 -0.88,-0.43l0,0l0,0q-0.5,0 -0.83,0.38l0,0l0,0q-0.32,0.38 -0.32,0.89zm-0.91,5.1l0,0l0,0q0,0.61 0.43,1.04l0,0l0,0q0.43,0.43 1.06,0.43l0,0l0,0q1.16,0 2.14,-1.54l0,0l-1.94,-2.27l-0.02,0l0,0q-0.39,0.3 -0.64,0.52l0,0l0,0q-0.26,0.22 -0.52,0.52l0,0l0,0q-0.26,0.29 -0.39,0.62l0,0l0,0q-0.12,0.32 -0.12,0.68zm-0.77,0.26l0,0l0,0q0,-0.38 0.14,-0.74l0,0l0,0q0.13,-0.37 0.31,-0.62l0,0l0,0q0.17,-0.26 0.52,-0.59l0,0l0,0q0.34,-0.32 0.56,-0.5l0,0l0,0q0.22,-0.17 0.65,-0.49l0,0l0,0q-1.04,-1.25 -1.04,-2.07l0,0l0,0q0,-0.82 0.54,-1.42l0,0l0,0q0.54,-0.61 1.34,-0.61l0,0l0,0q0.8,0 1.26,0.47l0,0l0,0q0.47,0.46 0.47,1.25l0,0l0,0q0,0.28 -0.1,0.55l0,0l0,0q-0.1,0.27 -0.24,0.49l0,0l0,0q-0.14,0.21 -0.4,0.45l0,0l0,0q-0.25,0.24 -0.45,0.41l0,0l0,0q-0.21,0.17 -0.54,0.41l0,0l0,0.02l1.75,2.01l1.28,-2.29l-1.1,-0.21l0.01,-0.24l2.85,0l-0.04,0.24l-1.14,0.19l-1.53,2.68l0,0q1.21,1.58 2.36,1.95l0,0l0.31,0.08l-0.04,0.26l0,0q-0.34,0.11 -0.63,0.11l0,0l0,0q-0.46,0 -0.92,-0.27l0,0l0,0q-0.45,-0.28 -0.76,-0.66l0,0l-0.71,-0.82l0,0q-0.19,0.29 -0.38,0.52l0,0l0,0q-0.19,0.23 -0.45,0.47l0,0l0,0q-0.26,0.24 -0.54,0.4l0,0l0,0q-0.28,0.16 -0.63,0.26l0,0l0,0q-0.36,0.1 -0.75,0.1l0,0l0,0q-0.89,0 -1.42,-0.51l0,0l0,0q-0.54,-0.52 -0.54,-1.28zm25.4,-2.49l0,0l0,0q0,-0.52 0.1,-1.04l0,0l0,0q0.11,-0.53 0.31,-1.04l0,0l0,0q0.2,-0.51 0.53,-0.95l0,0l0,0q0.33,-0.45 0.74,-0.78l0,0l0,0q0.42,-0.34 0.97,-0.54l0,0l0,0q0.56,-0.19 1.2,-0.19l0,0l0,0q1.41,0 2.32,0.68l0,0l-0.21,2.31l-0.32,-0.06l-0.21,-1.77l0,0q-0.59,-0.78 -1.91,-0.78l0,0l0,0q-1.14,0 -1.97,1.1l0,0l0,0q-0.83,1.11 -0.83,2.81l0,0l0,0q0,1.92 0.8,2.97l0,0l0,0q0.81,1.06 2.28,1.06l0,0l0,0q0.74,0 1.43,-0.38l0,0l0,0q0.69,-0.37 1.16,-0.91l0,0l0.16,0.25l0,0q-0.18,0.26 -0.46,0.52l0,0l0,0q-0.29,0.26 -0.68,0.51l0,0l0,0q-0.38,0.25 -0.89,0.4l0,0l0,0q-0.5,0.15 -1.03,0.15l0,0l0,0q-1.57,0 -2.53,-1.17l0,0l0,0q-0.96,-1.18 -0.96,-3.15zm18.28,-3.27l-1.36,3.77l2.68,0l-1.32,-3.77zm-1.32,7.42l-2.72,0l0.03,-0.29l0.97,-0.21l3,-8.08l0.36,-0.09l2.83,8.22l0.91,0.13l-0.06,0.31l-2.79,0l0.06,-0.29l1.13,-0.2l-0.95,-2.77l-2.95,0l-1.01,2.82l1.26,0.13l-0.07,0.32zm19.23,0l-6.15,0l0.03,-0.29l1.16,-0.21l0,-7.56l-1.18,-0.17l0.03,-0.27l3.11,0l-0.03,0.27l-1.2,0.15l0,7.71l3.62,0l0.53,-1.94l0.3,0.05l-0.22,2.26zm14.11,0l-6.16,0l0.04,-0.29l1.15,-0.21l0,-7.56l-1.17,-0.17l0.02,-0.27l3.11,0l-0.02,0.27l-1.21,0.15l0,7.71l3.63,0l0.52,-1.94l0.3,0.05l-0.21,2.26zm9.09,-8.07l-1.18,-0.17l0.04,-0.27l3.13,0l-0.05,0.27l-1.2,0.16l0,7.63l1.32,0.13l-0.06,0.32l-3.11,0l0.03,-0.29l1.08,-0.21l0,-7.57zm9.8,3.94l0,0l0,0q0,-0.63 0.17,-1.27l0,0l0,0q0.17,-0.64 0.52,-1.22l0,0l0,0q0.35,-0.57 0.83,-1.03l0,0l0,0q0.48,-0.45 1.14,-0.71l0,0l0,0q0.67,-0.27 1.43,-0.27l0,0l0,0q0.74,0 1.44,0.17l0,0l0,0q0.7,0.17 1.18,0.53l0,0l-0.21,2.17l-0.31,-0.03l-0.21,-1.62l0,0q-0.27,-0.34 -0.81,-0.58l0,0l0,0q-0.55,-0.24 -1.31,-0.24l0,0l0,0q-1.41,0 -2.24,1.1l0,0l0,0q-0.84,1.1 -0.84,2.8l0,0l0,0q0,0.62 0.11,1.18l0,0l0,0q0.11,0.56 0.36,1.09l0,0l0,0q0.25,0.53 0.63,0.91l0,0l0,0q0.38,0.38 0.97,0.61l0,0l0,0q0.59,0.23 1.32,0.23l0,0l0,0q1.06,0 1.78,-0.5l0,0l0.01,-2.56l-1.65,-0.17l0.04,-0.26l3.29,0l-0.05,0.26l-0.92,0.15l0,2.85l0,0q-0.65,0.39 -1.39,0.53l0,0l0,0q-0.73,0.14 -1.82,0.14l0,0l0,0q-0.7,0 -1.34,-0.3l0,0l0,0q-0.63,-0.3 -1.1,-0.84l0,0l0,0q-0.47,-0.54 -0.74,-1.35l0,0l0,0q-0.28,-0.81 -0.28,-1.77zm17.12,-4.09l0,3.93l1.56,0l0,0q0.68,-0.25 1.14,-0.83l0,0l0,0q0.46,-0.58 0.46,-1.26l0,0l0,0q0,-0.91 -0.62,-1.39l0,0l0,0q-0.62,-0.48 -1.71,-0.48l0,0l-0.83,0.03zm1.38,8.22l-3.19,0l0.04,-0.29l1.07,-0.21l0,-7.39l-1.09,-0.14l0.06,-0.24l0,0q1.82,-0.3 2.9,-0.3l0,0l0,0q0.77,0 1.38,0.22l0,0l0,0q0.61,0.22 0.98,0.68l0,0l0,0q0.38,0.46 0.38,1.1l0,0l0,0q0,0.74 -0.43,1.31l0,0l0,0q-0.43,0.58 -1.46,1.09l0,0l0,0l1.32,1.96l0,0q0.71,1.04 1.06,1.39l0,0l0,0q0.34,0.34 0.72,0.47l0,0l0.33,0.11l-0.04,0.26l0,0q-0.29,0.1 -0.63,0.1l0,0l0,0q-0.29,0 -0.54,-0.12l0,0l0,0q-0.26,-0.12 -0.5,-0.39l0,0l0,0q-0.24,-0.26 -0.43,-0.53l0,0l0,0q-0.18,-0.26 -0.46,-0.71l0,0l-1.38,-2.28l-1.47,0l0,3.46l1.45,0.13l-0.07,0.32zm15.82,-7.42l-1.36,3.77l2.68,0l-1.32,-3.77zm-1.32,7.42l-2.72,0l0.03,-0.29l0.97,-0.21l3,-8.08l0.36,-0.09l2.83,8.22l0.91,0.13l-0.06,0.31l-2.79,0l0.06,-0.29l1.13,-0.2l-0.95,-2.77l-2.95,0l-1.01,2.82l1.26,0.13l-0.07,0.32zm16.48,0l-3.41,0l0.03,-0.29l1.08,-0.21l0,-7.39l-1.11,-0.15l0.07,-0.24l0,0q0.17,-0.03 0.61,-0.1l0,0l0,0q0.45,-0.08 0.68,-0.11l0,0l0,0q0.23,-0.03 0.64,-0.07l0,0l0,0q0.41,-0.03 0.83,-0.03l0,0l0,0q0.69,0 1.28,0.15l0,0l0,0q0.58,0.14 1.05,0.44l0,0l0,0q0.46,0.29 0.72,0.78l0,0l0,0q0.26,0.48 0.26,1.11l0,0l0,0q0,0.61 -0.28,1.14l0,0l0,0q-0.28,0.54 -0.75,0.9l0,0l0,0q-0.46,0.36 -1.06,0.57l0,0l0,0q-0.6,0.2 -1.24,0.2l0,0l0,0q-0.27,0 -0.34,-0.01l0,0l-0.07,-0.29l0.37,-0.02l0,0q0.67,-0.03 1.16,-0.23l0,0l0,0q0.5,-0.19 0.79,-0.52l0,0l0,0q0.29,-0.33 0.43,-0.73l0,0l0,0q0.14,-0.4 0.14,-0.87l0,0l0,0q0,-0.45 -0.17,-0.86l0,0l0,0q-0.17,-0.41 -0.49,-0.74l0,0l0,0q-0.32,-0.33 -0.84,-0.52l0,0l0,0q-0.52,-0.2 -1.17,-0.2l0,0l-0.76,0.04l0,7.8l1.6,0.13l-0.05,0.32zm11.64,-8.07l-1.23,-0.17l0.02,-0.27l3.12,0l-0.04,0.27l-1.15,0.16l0,3.63l4.91,0l0,-3.62l-1.26,-0.17l0.05,-0.27l3.11,0l-0.06,0.27l-1.14,0.16l0,7.63l1.25,0.13l-0.05,0.32l-3.09,0l0.05,-0.29l1.14,-0.21l0,-3.54l-4.91,0l0,3.59l1.27,0.13l-0.08,0.32l-3.09,0l0.04,-0.29l1.14,-0.21l0,-7.57zm16.23,0.02l-0.95,-0.2l0.03,-0.25l2.85,0l-0.03,0.25l-1.14,0.17l2.14,4.17l2.12,-4.15l-1.26,-0.2l0.01,-0.25l2.67,0l-0.02,0.25l-0.88,0.18l-2.39,4.73l0,2.89l1.24,0.14l-0.06,0.32l-3.14,0l0.04,-0.29l1.2,-0.21l0,-2.85l-2.43,-4.7z" id="svg_3"/>
   </g>
  </g>
 </g>
</svg>