<?xml version="1.0" encoding="UTF-8"?>
<svg xmlns="http://www.w3.org/2000/svg" xmlns:xlink="http://www.w3.org/1999/xlink" width="64pt" height="64pt" viewBox="0 0 64 64" version="1.1">
<g id="surface1212024">
<path style=" stroke:none;fill-rule:nonzero;fill:rgb(92.941176%,47.058824%,60%);fill-opacity:1;" d="M 45.410156 55.828125 L 32.589844 46.429688 C 32.238281 46.171875 31.761719 46.171875 31.410156 46.429688 L 18.589844 55.828125 C 18.28125 56.054688 17.875 56.085938 17.535156 55.910156 C 17.199219 55.734375 16.992188 55.378906 17 55 L 17 8 C 17 7.449219 17.449219 7 18 7 L 46 7 C 46.550781 7 47 7.449219 47 8 L 47 55 C 47.007812 55.378906 46.800781 55.734375 46.464844 55.910156 C 46.125 56.085938 45.71875 56.054688 45.410156 55.828125 Z M 45.410156 55.828125 "/>
<path style=" stroke:none;fill-rule:nonzero;fill:rgb(87.843137%,40.392157%,56.078431%);fill-opacity:1;" d="M 45.410156 48.828125 L 33.769531 40.300781 C 32.714844 39.523438 31.277344 39.523438 30.21875 40.300781 L 18.589844 48.828125 C 18.28125 49.054688 17.875 49.085938 17.535156 48.910156 C 17.199219 48.734375 16.992188 48.378906 17 48 L 17 55 C 17 55.378906 17.210938 55.722656 17.546875 55.894531 C 17.882812 56.066406 18.285156 56.03125 18.589844 55.808594 L 31.410156 46.410156 C 31.761719 46.152344 32.238281 46.152344 32.589844 46.410156 L 45.410156 55.808594 C 45.714844 56.03125 46.117188 56.066406 46.453125 55.894531 C 46.789062 55.722656 47 55.378906 47 55 L 47 48 C 47.007812 48.378906 46.800781 48.734375 46.464844 48.910156 C 46.125 49.085938 45.71875 49.054688 45.410156 48.828125 Z M 45.410156 48.828125 "/>
<path style=" stroke:none;fill-rule:nonzero;fill:rgb(94.901961%,51.372549%,64.705882%);fill-opacity:1;" d="M 46 7 L 18 7 C 17.449219 7 17 7.449219 17 8 L 17 13 C 17 12.449219 17.449219 12 18 12 L 46 12 C 46.550781 12 47 12.449219 47 13 L 47 8 C 47 7.449219 46.550781 7 46 7 Z M 46 7 "/>
<path style=" stroke:none;fill-rule:nonzero;fill:rgb(55.294118%,42.352941%,62.352941%);fill-opacity:1;" d="M 45 6 L 19 6 C 17.34375 6 16 7.34375 16 9 L 16 55 C 16 55.753906 16.425781 56.441406 17.097656 56.78125 C 17.769531 57.121094 18.574219 57.054688 19.179688 56.609375 L 31.398438 47.609375 C 31.75 47.351562 32.230469 47.351562 32.578125 47.609375 L 44.808594 56.609375 C 45.417969 57.058594 46.226562 57.128906 46.902344 56.789062 C 47.574219 56.449219 48 55.753906 48 55 L 48 9 C 48 7.34375 46.65625 6 45 6 Z M 46 55 L 33.769531 46 C 32.714844 45.226562 31.277344 45.226562 30.21875 46 L 18 55 L 18 9 C 18 8.449219 18.449219 8 19 8 L 45 8 C 45.550781 8 46 8.449219 46 9 Z M 46 55 "/>
<path style=" stroke:none;fill-rule:nonzero;fill:rgb(55.294118%,42.352941%,62.352941%);fill-opacity:1;" d="M 37 10 C 36.449219 10 36 10.449219 36 11 L 36 13 C 36 13.550781 36.449219 14 37 14 C 37.550781 14 38 13.550781 38 13 L 38 11 C 38 10.449219 37.550781 10 37 10 Z M 42 10 C 41.449219 10 41 10.449219 41 11 L 41 13 C 41 13.550781 41.449219 14 42 14 C 42.550781 14 43 13.550781 43 13 L 43 11 C 43 10.449219 42.550781 10 42 10 Z M 22 10 C 21.449219 10 21 10.449219 21 11 L 21 13 C 21 13.550781 21.449219 14 22 14 C 22.550781 14 23 13.550781 23 13 L 23 11 C 23 10.449219 22.550781 10 22 10 Z M 27 10 C 26.449219 10 26 10.449219 26 11 L 26 13 C 26 13.550781 26.449219 14 27 14 C 27.550781 14 28 13.550781 28 13 L 28 11 C 28 10.449219 27.550781 10 27 10 Z M 32 10 C 31.449219 10 31 10.449219 31 11 L 31 13 C 31 13.550781 31.449219 14 32 14 C 32.550781 14 33 13.550781 33 13 L 33 11 C 33 10.449219 32.550781 10 32 10 Z M 32 10 "/>
<path style=" stroke:none;fill-rule:nonzero;fill:rgb(100%,100%,100%);fill-opacity:1;" d="M 30.019531 37.734375 L 30.019531 38.25 L 25 38.25 L 25 37.734375 C 25.261719 37.636719 25.527344 37.554688 25.796875 37.484375 C 26.0625 37.414062 26.351562 37.351562 26.664062 37.304688 L 26.664062 26.679688 L 23.925781 26.679688 L 22.980469 29.230469 L 22.535156 29.230469 C 22.5 28.992188 22.46875 28.722656 22.445312 28.421875 C 22.421875 28.117188 22.402344 27.804688 22.382812 27.488281 C 22.367188 27.175781 22.351562 26.863281 22.339844 26.558594 C 22.328125 26.257812 22.320312 25.988281 22.320312 25.75 L 32.699219 25.75 C 32.699219 25.988281 32.691406 26.253906 32.679688 26.550781 C 32.667969 26.851562 32.652344 27.15625 32.632812 27.472656 C 32.617188 27.785156 32.601562 28.097656 32.582031 28.402344 C 32.566406 28.703125 32.539062 28.980469 32.5 29.230469 L 32.035156 29.230469 L 31.109375 26.679688 L 28.375 26.679688 L 28.375 37.304688 C 28.683594 37.367188 28.972656 37.425781 29.242188 37.484375 C 29.507812 37.542969 29.769531 37.628906 30.019531 37.734375 Z M 34.980469 34.390625 L 35.714844 37.019531 C 35.859375 37.160156 36.042969 37.28125 36.269531 37.382812 C 36.496094 37.484375 36.835938 37.535156 37.289062 37.535156 C 37.667969 37.535156 38.027344 37.484375 38.359375 37.382812 C 38.691406 37.28125 38.980469 37.132812 39.222656 36.9375 C 39.46875 36.742188 39.664062 36.503906 39.804688 36.222656 C 39.949219 35.941406 40.019531 35.625 40.019531 35.265625 C 40.019531 34.789062 39.875 34.390625 39.582031 34.074219 C 39.292969 33.75 38.929688 33.464844 38.496094 33.214844 C 38.058594 32.964844 37.585938 32.722656 37.074219 32.484375 C 36.5625 32.246094 36.089844 31.960938 35.652344 31.636719 C 35.21875 31.308594 34.855469 30.914062 34.566406 30.457031 C 34.273438 29.996094 34.125 29.421875 34.125 28.734375 C 34.125 28.230469 34.214844 27.785156 34.394531 27.394531 C 34.574219 27 34.824219 26.664062 35.152344 26.390625 C 35.480469 26.117188 35.871094 25.90625 36.320312 25.757812 C 36.777344 25.609375 37.28125 25.53125 37.839844 25.53125 C 38.566406 25.53125 39.230469 25.589844 39.835938 25.703125 C 40.433594 25.816406 40.90625 25.957031 41.253906 26.125 C 41.253906 26.324219 41.238281 26.558594 41.207031 26.828125 C 41.175781 27.097656 41.140625 27.375 41.097656 27.660156 C 41.058594 27.945312 41.015625 28.222656 40.964844 28.492188 C 40.917969 28.757812 40.871094 28.992188 40.824219 29.195312 L 40.359375 29.195312 L 39.644531 26.75 C 39.429688 26.652344 39.160156 26.582031 38.832031 26.535156 C 38.507812 26.488281 38.15625 26.464844 37.789062 26.464844 C 37.179688 26.464844 36.691406 26.632812 36.320312 26.972656 C 35.953125 27.3125 35.769531 27.785156 35.769531 28.390625 C 35.769531 28.878906 35.917969 29.292969 36.207031 29.625 C 36.5 29.957031 36.863281 30.257812 37.304688 30.519531 C 37.746094 30.78125 38.21875 31.03125 38.726562 31.277344 C 39.230469 31.519531 39.707031 31.804688 40.148438 32.125 C 40.585938 32.445312 40.953125 32.828125 41.246094 33.269531 C 41.535156 33.707031 41.679688 34.253906 41.679688 34.910156 C 41.679688 35.445312 41.582031 35.933594 41.386719 36.375 C 41.191406 36.816406 40.90625 37.191406 40.539062 37.5 C 40.167969 37.808594 39.714844 38.046875 39.179688 38.214844 C 38.644531 38.382812 38.039062 38.46875 37.359375 38.46875 C 36.609375 38.46875 35.933594 38.378906 35.339844 38.199219 C 34.746094 38.019531 34.324219 37.828125 34.074219 37.625 C 34.085938 37.421875 34.105469 37.179688 34.132812 36.894531 C 34.164062 36.609375 34.199219 36.3125 34.242188 36.011719 C 34.285156 35.707031 34.328125 35.410156 34.375 35.125 C 34.421875 34.839844 34.472656 34.597656 34.519531 34.390625 Z M 34.980469 34.390625 "/>
</g>
</svg>
